<svg width="40" height="40" viewBox="0 0 40 40" fill="none" xmlns="http://www.w3.org/2000/svg">
<rect width="40" height="40" rx="8" fill="#F6F2FF"/>
<path d="M8.54988 32.4825C12.3782 32.4825 15.2552 29.153 16.9721 26.5221C16.7633 27.1041 16.6473 27.6862 16.6473 28.2451C16.6473 29.7817 17.529 30.8761 19.2691 30.8761C21.6589 30.8761 24.2111 28.7805 25.5336 26.5221C25.4408 26.8481 25.3944 27.1508 25.3944 27.4301C25.3944 28.5012 25.9977 29.1764 27.2273 29.1764C31.1021 29.1764 35 22.3079 35 16.3009C35 11.6211 32.6334 7.5 26.6938 7.5C16.2528 7.5 5 20.259 5 28.5012C5 31.7375 6.74013 32.4825 8.54988 32.4825ZM23.0974 15.7887C23.0974 14.6246 23.747 13.8097 24.6984 13.8097C25.6264 13.8097 26.2761 14.6246 26.2761 15.7887C26.2761 16.9529 25.6264 17.791 24.6984 17.791C23.747 17.791 23.0974 16.9529 23.0974 15.7887ZM28.0627 15.7887C28.0627 14.6246 28.7123 13.8097 29.6636 13.8097C30.5916 13.8097 31.2412 14.6246 31.2412 15.7887C31.2412 16.9529 30.5916 17.791 29.6636 17.791C28.7123 17.791 28.0627 16.9529 28.0627 15.7887Z" fill="#AB9FF2"/>
</svg>
